<svg width="97" height="47" viewBox="0 0 97 47" fill="none" xmlns="http://www.w3.org/2000/svg">
<path d="M5.85097 27.7132H0.16626V2.63309H10.1509C11.067 2.63309 11.9483 2.75282 12.7948 2.99142C13.6413 3.23045 14.4326 3.56854 15.1691 4.00568C15.9052 4.44283 16.5781 4.9674 17.1868 5.57984C17.7956 6.19184 18.3173 6.87146 18.7525 7.61741C19.1872 8.36378 19.5234 9.16227 19.7615 10.0133C19.9993 10.8643 20.1181 11.7507 20.1181 12.6719C20.1181 14.048 19.857 15.3452 19.3353 16.5632C18.8136 17.7816 18.1004 18.8454 17.1958 19.755C16.2911 20.6646 15.2328 21.3817 14.0212 21.9062C12.8092 22.4308 11.5191 22.6931 10.1509 22.6931H5.85097V27.7132ZM5.79748 8.36809V16.9671H10.1348C10.7291 16.9671 11.2882 16.8547 11.8125 16.6299C12.3363 16.4051 12.7948 16.098 13.1879 15.7087C13.581 15.3193 13.8905 14.8624 14.1172 14.3378C14.3439 13.8137 14.4572 13.2568 14.4572 12.6676C14.4572 12.0784 14.3439 11.5216 14.1172 10.9974C13.8905 10.4733 13.5806 10.0163 13.1879 9.62655C12.7952 9.23678 12.3363 8.93013 11.8125 8.70532C11.2886 8.4805 10.7291 8.36809 10.1348 8.36809H5.79748Z" fill="#FF2400"/>
<path d="M27.4797 27.7002H21.871V2.6206H27.4797V27.7002Z" fill="#FF2400"/>
<path d="M45.0729 27.7132L36.558 12.982V27.7132H30.9569V2.63309H36.7418L45.2266 17.3104V2.63309H50.8536V27.7132H45.0729Z" fill="#FF2400"/>
<path d="M68.7444 21.5057C67.7595 22.035 66.6367 22.3352 65.4446 22.3352C61.545 22.3352 58.3837 19.1279 58.3837 15.1716C58.3837 11.2153 61.545 8.00804 65.4446 8.00804C66.6371 8.00804 67.7604 8.30865 68.7457 8.83797C69.5574 7.09197 70.6938 5.53203 72.0765 4.23825C70.1525 3.03836 67.8882 2.34582 65.4642 2.34582C58.4813 2.34582 52.8208 8.08858 52.8208 15.1729C52.8208 22.2572 58.4813 28 65.4642 28C67.8882 28 70.1525 27.3075 72.0765 26.1076C70.6929 24.8134 69.5561 23.253 68.7444 21.5057Z" fill="#FF2400"/>
<path d="M82.0229 2.33333C75.04 2.33333 69.3795 8.07609 69.3795 15.1604C69.3795 22.2448 75.04 27.9875 82.0229 27.9875C89.0058 27.9875 94.6663 22.2448 94.6663 15.1604C94.6663 8.07609 89.0058 2.33333 82.0229 2.33333ZM81.9978 22.324C78.0982 22.324 74.9368 19.1167 74.9368 15.1604C74.9368 11.2042 78.0982 7.99684 81.9978 7.99684C85.8974 7.99684 89.0588 11.2042 89.0588 15.1604C89.0588 19.1167 85.8974 22.324 81.9978 22.324Z" fill="#FF2400"/>
<path d="M81.9882 18.5704C83.813 18.5704 85.2922 17.0696 85.2922 15.2184C85.2922 13.3672 83.813 11.8664 81.9882 11.8664C80.1635 11.8664 78.6842 13.3672 78.6842 15.2184C78.6842 17.0696 80.1635 18.5704 81.9882 18.5704Z" fill="#FF2400"/>
<path d="M96.9273 4.45453C96.7804 4.09898 96.433 3.86752 96.0486 3.86752H93.1323V0.95139C93.1323 0.567067 92.9012 0.219673 92.5452 0.0728148C92.1896 -0.0757615 91.7808 0.0079737 91.5085 0.278932L87.7045 4.14621C87.5262 4.32442 87.4258 4.56575 87.4258 4.81867V8.22862L80.9836 14.6702C80.7878 14.8446 80.6663 15.0996 80.6663 15.3822C80.6663 15.9074 81.0923 16.3333 81.6175 16.3333C81.9078 16.3333 82.1285 16.1869 82.3437 15.9997L88.7704 9.57354H92.1806C92.4331 9.57354 92.6749 9.47306 92.8531 9.29485L96.7207 5.49113C96.993 5.21888 97.075 4.81051 96.9273 4.45453Z" fill="#04CFAA"/>
<path d="M0 39C0 35.134 3.13401 32 7 32H90C93.866 32 97 35.134 97 39C97 42.866 93.866 46 90 46H7C3.13401 46 0 42.866 0 39Z" fill="#04CFAA"/>
<path d="M32.492 40.492C32.524 40.492 32.556 40.4987 32.588 40.512C32.62 40.5227 32.6507 40.5427 32.68 40.572L33.216 41.136C32.9813 41.4427 32.6867 41.6747 32.332 41.832C31.98 41.9867 31.5627 42.064 31.08 42.064C30.6373 42.064 30.24 41.9893 29.888 41.84C29.5387 41.688 29.2413 41.48 28.996 41.216C28.7533 40.9493 28.5667 40.6347 28.436 40.272C28.3053 39.9067 28.24 39.5107 28.24 39.084C28.24 38.6493 28.3107 38.2507 28.452 37.888C28.5933 37.5227 28.792 37.208 29.048 36.944C29.304 36.68 29.6107 36.4747 29.968 36.328C30.3253 36.1813 30.7187 36.108 31.148 36.108C31.3667 36.108 31.572 36.128 31.764 36.168C31.9587 36.2053 32.14 36.2587 32.308 36.328C32.476 36.3947 32.6307 36.476 32.772 36.572C32.9133 36.668 33.0387 36.772 33.148 36.884L32.692 37.496C32.6627 37.5333 32.628 37.568 32.588 37.6C32.548 37.6293 32.492 37.644 32.42 37.644C32.372 37.644 32.3267 37.6333 32.284 37.612C32.2413 37.5907 32.196 37.5653 32.148 37.536C32.1 37.504 32.0467 37.4707 31.988 37.436C31.932 37.3987 31.864 37.3653 31.784 37.336C31.7067 37.304 31.6147 37.2773 31.508 37.256C31.404 37.2347 31.2813 37.224 31.14 37.224C30.916 37.224 30.7107 37.2653 30.524 37.348C30.34 37.4307 30.18 37.552 30.044 37.712C29.9107 37.8693 29.8067 38.064 29.732 38.296C29.66 38.5253 29.624 38.788 29.624 39.084C29.624 39.3827 29.664 39.648 29.744 39.88C29.8267 40.112 29.9373 40.308 30.076 40.468C30.2173 40.6253 30.3813 40.7453 30.568 40.828C30.7547 40.9107 30.9547 40.952 31.168 40.952C31.2907 40.952 31.4027 40.9467 31.504 40.936C31.6053 40.9227 31.7 40.9027 31.788 40.876C31.876 40.8467 31.9587 40.8093 32.036 40.764C32.1133 40.716 32.192 40.656 32.272 40.584C32.304 40.5573 32.3387 40.536 32.376 40.52C32.4133 40.5013 32.452 40.492 32.492 40.492ZM38.8862 39.772L38.3462 38.176C38.3062 38.0747 38.2635 37.956 38.2182 37.82C38.1729 37.6813 38.1275 37.532 38.0822 37.372C38.0422 37.5347 37.9995 37.6853 37.9542 37.824C37.9089 37.9627 37.8662 38.0827 37.8262 38.184L37.2902 39.772H38.8862ZM41.0342 42H39.9862C39.8689 42 39.7742 41.9733 39.7022 41.92C39.6302 41.864 39.5755 41.7933 39.5382 41.708L39.1942 40.692H36.9782L36.6342 41.708C36.6049 41.7827 36.5515 41.8507 36.4742 41.912C36.3995 41.9707 36.3062 42 36.1942 42H35.1382L37.3942 36.172H38.7782L41.0342 42ZM46.7137 37.356C46.6737 37.42 46.631 37.468 46.5857 37.5C46.543 37.532 46.487 37.548 46.4177 37.548C46.3564 37.548 46.2897 37.5293 46.2177 37.492C46.1484 37.452 46.0684 37.408 45.9777 37.36C45.8897 37.312 45.7884 37.2693 45.6737 37.232C45.559 37.192 45.4284 37.172 45.2817 37.172C45.0284 37.172 44.839 37.2267 44.7137 37.336C44.591 37.4427 44.5297 37.588 44.5297 37.772C44.5297 37.8893 44.567 37.9867 44.6417 38.064C44.7164 38.1413 44.8137 38.208 44.9337 38.264C45.0564 38.32 45.195 38.372 45.3497 38.42C45.507 38.4653 45.667 38.5173 45.8297 38.576C45.9924 38.632 46.151 38.6987 46.3057 38.776C46.463 38.8533 46.6017 38.952 46.7217 39.072C46.8444 39.192 46.943 39.3387 47.0177 39.512C47.0924 39.6827 47.1297 39.8893 47.1297 40.132C47.1297 40.4013 47.083 40.6533 46.9897 40.888C46.8964 41.1227 46.7604 41.328 46.5817 41.504C46.4057 41.6773 46.187 41.8147 45.9257 41.916C45.667 42.0147 45.3724 42.064 45.0417 42.064C44.8604 42.064 44.675 42.0453 44.4857 42.008C44.299 41.9707 44.1177 41.9187 43.9417 41.852C43.7657 41.7827 43.6004 41.7013 43.4457 41.608C43.291 41.5147 43.1564 41.4107 43.0417 41.296L43.4417 40.664C43.4737 40.6187 43.515 40.5813 43.5657 40.552C43.619 40.52 43.6764 40.504 43.7377 40.504C43.8177 40.504 43.8977 40.5293 43.9777 40.58C44.0604 40.6307 44.1524 40.6867 44.2537 40.748C44.3577 40.8093 44.4764 40.8653 44.6097 40.916C44.743 40.9667 44.9004 40.992 45.0817 40.992C45.327 40.992 45.5177 40.9387 45.6537 40.832C45.7897 40.7227 45.8577 40.5507 45.8577 40.316C45.8577 40.18 45.8204 40.0693 45.7457 39.984C45.671 39.8987 45.5724 39.828 45.4497 39.772C45.3297 39.716 45.1924 39.6667 45.0377 39.624C44.883 39.5813 44.7244 39.5347 44.5617 39.484C44.399 39.4307 44.2404 39.3667 44.0857 39.292C43.931 39.2147 43.7924 39.1147 43.6697 38.992C43.5497 38.8667 43.4524 38.712 43.3777 38.528C43.303 38.3413 43.2657 38.112 43.2657 37.84C43.2657 37.6213 43.3097 37.408 43.3977 37.2C43.4857 36.992 43.615 36.8067 43.7857 36.644C43.9564 36.4813 44.1657 36.352 44.4137 36.256C44.6617 36.1573 44.9457 36.108 45.2657 36.108C45.4444 36.108 45.6177 36.1227 45.7857 36.152C45.9564 36.1787 46.1177 36.22 46.2697 36.276C46.4217 36.3293 46.563 36.3947 46.6937 36.472C46.827 36.5467 46.9457 36.632 47.0497 36.728L46.7137 37.356ZM51.2834 42H49.9234V36.172H51.2834V42ZM59.4958 36.172V42H58.7918C58.6878 42 58.5998 41.984 58.5278 41.952C58.4584 41.9173 58.3891 41.8587 58.3198 41.776L55.5718 38.3C55.5824 38.404 55.5891 38.5053 55.5918 38.604C55.5971 38.7 55.5998 38.7907 55.5998 38.876V42H54.4078V36.172H55.1198C55.1784 36.172 55.2278 36.1747 55.2678 36.18C55.3078 36.1853 55.3438 36.196 55.3758 36.212C55.4078 36.2253 55.4384 36.2453 55.4678 36.272C55.4971 36.2987 55.5304 36.3347 55.5678 36.38L58.3398 39.88C58.3264 39.768 58.3171 39.66 58.3118 39.556C58.3064 39.4493 58.3038 39.3493 58.3038 39.256V36.172H59.4958ZM68.3465 39.084C68.3465 39.5053 68.2732 39.8973 68.1265 40.26C67.9825 40.6227 67.7785 40.9387 67.5145 41.208C67.2505 41.4747 66.9318 41.684 66.5585 41.836C66.1878 41.988 65.7758 42.064 65.3225 42.064C64.8692 42.064 64.4558 41.988 64.0825 41.836C63.7092 41.684 63.3892 41.4747 63.1225 41.208C62.8585 40.9387 62.6532 40.6227 62.5065 40.26C62.3625 39.8973 62.2905 39.5053 62.2905 39.084C62.2905 38.6627 62.3625 38.2707 62.5065 37.908C62.6532 37.5453 62.8585 37.2307 63.1225 36.964C63.3892 36.6973 63.7092 36.488 64.0825 36.336C64.4558 36.184 64.8692 36.108 65.3225 36.108C65.7758 36.108 66.1878 36.1853 66.5585 36.34C66.9318 36.492 67.2505 36.7013 67.5145 36.968C67.7785 37.2347 67.9825 37.5493 68.1265 37.912C68.2732 38.2747 68.3465 38.6653 68.3465 39.084ZM66.9625 39.084C66.9625 38.796 66.9252 38.5373 66.8505 38.308C66.7758 38.076 66.6678 37.88 66.5265 37.72C66.3878 37.56 66.2172 37.4373 66.0145 37.352C65.8118 37.2667 65.5812 37.224 65.3225 37.224C65.0612 37.224 64.8278 37.2667 64.6225 37.352C64.4198 37.4373 64.2478 37.56 64.1065 37.72C63.9678 37.88 63.8612 38.076 63.7865 38.308C63.7118 38.5373 63.6745 38.796 63.6745 39.084C63.6745 39.3747 63.7118 39.636 63.7865 39.868C63.8612 40.0973 63.9678 40.292 64.1065 40.452C64.2478 40.612 64.4198 40.7347 64.6225 40.82C64.8278 40.9027 65.0612 40.944 65.3225 40.944C65.5812 40.944 65.8118 40.9027 66.0145 40.82C66.2172 40.7347 66.3878 40.612 66.5265 40.452C66.6678 40.292 66.7758 40.0973 66.8505 39.868C66.9252 39.636 66.9625 39.3747 66.9625 39.084Z" fill="black"/>
</svg>
